<?xml version="1.0" encoding="UTF-8"?>
<svg width="100px" height="100px" viewBox="0 0 100 100" version="1.1" xmlns="http://www.w3.org/2000/svg" xmlns:xlink="http://www.w3.org/1999/xlink">
	<title>Slice</title>
	<g id="Page-1" stroke="none" stroke-width="1" fill="none" fill-rule="evenodd">
		<g id="Slice_sentinel" transform="translate(12.000000, 20.000000)" fill="#D92327" fill-rule="nonzero">
			<path d="M46.4,18 C47.7,18 48.8,16.9 48.8,15.6 C48.8,14.3 47.7,13.2 46.4,13.2 C45.1,13.2 44,14.4 44,15.7 C44,17 45.1,18 46.4,18 Z" id="Path"></path>
			<path d="M29.6,18 C30.9,18 32,16.9 32,15.6 C32,14.3 30.9,13.2 29.6,13.2 C28.3,13.2 27.2,14.3 27.2,15.6 C27.3,17 28.3,18 29.6,18 Z" id="Path"></path>
			<circle id="Oval" cx="38.1" cy="38.9" r="3.1"></circle>
			<path d="M47.8,37.1 C46.8,37.1 45.9,37.9 45.9,39 C45.9,40.1 46.7,40.9 47.8,40.9 C48.8,40.9 49.7,40.1 49.7,39 C49.7,37.9 48.8,37.1 47.8,37.1 Z" id="Path"></path>
			<path d="M42.9,41.1 C42.2,41.1 41.7,41.6 41.7,42.3 C41.7,43 42.2,43.5 42.9,43.5 C43.6,43.5 44.1,43 44.1,42.3 C44.1,41.6 43.5,41.1 42.9,41.1 Z" id="Path"></path>
			<circle id="Oval" cx="42.9" cy="35.1" r="1.2"></circle>
			<path d="M28.2,37.1 C27.2,37.1 26.3,37.9 26.3,39 C26.3,40.1 27.1,40.9 28.2,40.9 C29.2,40.9 30.1,40.1 30.1,39 C30.1,37.9 29.3,37.1 28.2,37.1 Z" id="Path"></path>
			<path d="M33.1,41.1 C32.4,41.1 31.9,41.6 31.9,42.3 C31.9,43 32.4,43.5 33.1,43.5 C33.8,43.5 34.3,43 34.3,42.3 C34.3,41.6 33.8,41.1 33.1,41.1 Z" id="Path"></path>
			<circle id="Oval" cx="33.1" cy="35.1" r="1.2"></circle>
			<path d="M75.3,34.7 C74.2,34.7 73.3,35.2 72.7,36 L64,36 L64,30.5 C64,30.3 64,30.1 64,29.8 L71.5,22.3 L71.5,9.2 C72.2,8.6 72.7,7.7 72.7,6.7 C72.7,6.5 72.7,6.2 72.6,6 L66.1,6 C66.1,6.2 66,6.4 66,6.7 C66,7.8 66.6,8.9 67.5,9.4 L67.5,20.6 L62.3,25.8 C61.2,24.5 59.7,23.5 58,23.1 L58,22.9 C58,17.6 56,12.9 52.7,9.4 L58.7,3.4 C59.5,2.6 59.5,1.4 58.7,0.6 C57.9,-0.2 56.7,-0.2 55.9,0.6 L49.7,6.9 C46.5,4.7 42.5,3.4 38.1,3.3 L38.1,3.3 C38.1,3.3 38,3.3 38,3.3 C38,3.3 37.9,3.3 37.9,3.3 L37.9,3.3 C33.5,3.3 29.5,4.6 26.3,6.8 L20.1,0.6 C19.3,-0.2 18.1,-0.2 17.3,0.6 C16.5,1.4 16.5,2.6 17.3,3.4 L23.3,9.4 C20,12.9 18,17.6 18,22.9 L18,23.1 C16.3,23.5 14.7,24.4 13.7,25.8 L8.6,20.7 L8.6,9.4 C9.5,8.8 10.1,7.8 10.1,6.7 C10.1,6.5 10.1,6.2 10,6 L3.4,6 C3.4,6.2 3.3,6.4 3.3,6.7 C3.3,7.7 3.8,8.6 4.5,9.2 L4.5,22.3 L12,29.8 C12,30 12,30.2 12,30.5 L12,36 L3.3,36 C2.7,35.2 1.7,34.7 0.7,34.7 C0.5,34.7 0.2,34.7 0,34.8 L0,41.3 C0.2,41.3 0.4,41.4 0.7,41.4 C1.8,41.4 2.7,40.9 3.3,40.1 L12,40.1 L12,43.2 C12,44.7 12.6,46.1 13.5,47.1 L5.3,47.1 C4.7,46.3 3.7,45.8 2.7,45.8 C2.5,45.8 2.2,45.8 2,45.9 L2,52.4 C2.2,52.4 2.4,52.5 2.7,52.5 C3.8,52.5 4.7,52 5.3,51.2 L15.8,51.2 L17.8,49.2 C17.8,49.2 17.9,49.2 17.9,49.2 L18,49.2 C20.4,49.2 22.5,47.8 23.4,45.7 C24.4,46.4 25.5,46.8 26.7,47 L21,55 L15.3,55 C14.7,54.2 13.7,53.7 12.7,53.7 C12.5,53.7 12.2,53.7 12,53.8 L12,60.3 C12.2,60.3 12.4,60.4 12.7,60.4 C13.8,60.4 14.7,59.9 15.3,59.1 L23,59.1 L30.1,49 C32.3,50.2 35,50.8 37.9,50.8 C38,50.8 38.1,50.8 38.2,50.8 C41,50.8 43.6,50.2 45.7,49 L53,59 L60.7,59 C61.3,59.8 62.3,60.3 63.3,60.3 C63.5,60.3 63.8,60.3 64,60.2 L64,53.7 C63.8,53.7 63.6,53.6 63.3,53.6 C62.2,53.6 61.3,54.1 60.7,54.9 L55,54.9 L49.2,46.8 C50.4,46.6 51.5,46.1 52.5,45.5 C53.4,47.5 55.5,49 57.9,49 L58,49 C58,49 58.1,49 58.1,49 L60.1,51 L70.6,51 C71.2,51.8 72.2,52.3 73.2,52.3 C73.4,52.3 73.7,52.3 73.9,52.2 L73.9,45.7 C73.7,45.7 73.5,45.6 73.2,45.6 C72.1,45.6 71.2,46.1 70.6,46.9 L62.4,46.9 C63.3,45.9 63.9,44.5 63.9,43 L63.9,40 L72.6,40 C73.2,40.8 74.2,41.3 75.2,41.3 C75.4,41.3 75.7,41.3 75.9,41.2 L75.9,34.7 C75.8,34.7 75.6,34.7 75.3,34.7 Z M19.5,27 L22,27 L22,22.9 C22,13.9 28.7,7.3 38,7.2 C47.3,7.2 54,13.8 54,22.9 L54,27 L56.5,27 C57.8,27 58.9,27.7 59.5,28.7 L54.3,33.9 C52.9,32.2 50.8,31 48.5,30.9 C46,28.6 42.2,27.2 38,27.2 C33.9,27.3 30.1,28.6 27.6,30.9 C25.3,31 23.2,32.2 21.8,33.9 L16.6,28.7 C17.1,27.7 18.2,27 19.5,27 Z M20,43.1 C20,44.2 19.1,45 18.1,45 L18,45 C16.9,45 16.1,44.1 16.1,43.1 L16.1,38.1 C16.1,38.1 16.1,38 16.1,38 C16.1,38 16.1,37.9 16.1,37.9 L16.1,33.8 L20.2,37.9 C20.2,38.2 20.1,38.6 20.1,39 C20.1,39 20.1,39 20.1,39.1 L20.1,39.1 L20.1,43.1 L20,43.1 Z M48,43 L46.9,43 L46.3,43.7 C44.4,45.7 41.5,46.8 38.1,46.8 L38.1,46.8 L38.1,46.8 C34.7,46.9 31.7,45.8 29.9,43.7 L29.3,43 L28,43 C25.8,43 24,41.2 24,39 C24,36.8 25.8,35 28,35 C28.1,35 28.2,35 28.3,35 L29.2,35.1 L29.8,34.4 C31.5,32.5 34.6,31.4 37.9,31.3 C41.3,31.4 44.3,32.5 46.1,34.4 L46.7,35.1 L47.6,35 C49.9,34.9 51.9,36.7 51.9,39 C52,41.2 50.2,43 48,43 Z M56,43.1 L56,39 L56,39 C56,39 56,39 56,38.9 C56,38.5 56,38.2 55.9,37.9 L60,33.8 L60,43 C60,44.1 59.1,44.9 58.1,44.9 L58,44.9 C56.9,45 56,44.1 56,43.1 Z" id="Shape"></path>
		</g>
	</g>
</svg>